<svg width="230" height="34" viewBox="0 0 230 34" fill="none" xmlns="http://www.w3.org/2000/svg">
<path d="M1.05114 18.7727V16.4886C2.36174 16.4886 3.27083 16.2273 3.77841 15.7045C4.28599 15.1818 4.53977 14.3371 4.53977 13.1705V10.6591C4.53977 9.25758 4.73295 8.13636 5.11932 7.29545C5.51326 6.44697 6.05871 5.80682 6.75568 5.375C7.46023 4.94318 8.29356 4.6553 9.25568 4.51136C10.2178 4.36742 11.2708 4.29545 12.4148 4.29545V7.90909C11.5208 7.90909 10.839 8.02651 10.3693 8.26136C9.9072 8.48864 9.5928 8.8447 9.42614 9.32954C9.25947 9.80682 9.17614 10.4129 9.17614 11.1477V14.4659C9.17614 15.0417 9.07008 15.5909 8.85795 16.1136C8.64583 16.6288 8.25189 17.0871 7.67614 17.4886C7.10038 17.8826 6.27841 18.197 5.21023 18.4318C4.14205 18.6591 2.75568 18.7727 1.05114 18.7727ZM12.4148 33.0568C11.2708 33.0568 10.2178 32.9848 9.25568 32.8409C8.29356 32.697 7.46023 32.4091 6.75568 31.9773C6.05871 31.5455 5.51326 30.9053 5.11932 30.0568C4.73295 29.2159 4.53977 28.0947 4.53977 26.6932V24.1705C4.53977 23.0038 4.28599 22.1591 3.77841 21.6364C3.27083 21.1136 2.36174 20.8523 1.05114 20.8523V18.5682C2.75568 18.5682 4.14205 18.6856 5.21023 18.9205C6.27841 19.1477 7.10038 19.4621 7.67614 19.8636C8.25189 20.2576 8.64583 20.7159 8.85795 21.2386C9.07008 21.7538 9.17614 22.303 9.17614 22.8864V26.2045C9.17614 26.9318 9.25947 27.5341 9.42614 28.0114C9.5928 28.4962 9.9072 28.8523 10.3693 29.0795C10.839 29.3144 11.5208 29.4318 12.4148 29.4318V33.0568ZM1.05114 20.8523V16.4886H5.13068V20.8523H1.05114ZM228.946 18.5682V20.8523C227.643 20.8523 226.734 21.1136 226.219 21.6364C225.711 22.1591 225.457 23.0038 225.457 24.1705V26.6932C225.457 28.0947 225.26 29.2159 224.866 30.0568C224.48 30.9053 223.935 31.5455 223.23 31.9773C222.533 32.4091 221.704 32.697 220.741 32.8409C219.787 32.9848 218.734 33.0568 217.582 33.0568V29.4318C218.476 29.4318 219.154 29.3144 219.616 29.0795C220.086 28.8523 220.404 28.4962 220.571 28.0114C220.738 27.5341 220.821 26.9318 220.821 26.2045V22.8864C220.821 22.303 220.927 21.7538 221.139 21.2386C221.351 20.7159 221.745 20.2576 222.321 19.8636C222.897 19.4621 223.719 19.1477 224.787 18.9205C225.855 18.6856 227.241 18.5682 228.946 18.5682ZM217.582 4.29545C218.734 4.29545 219.787 4.36742 220.741 4.51136C221.704 4.6553 222.533 4.94318 223.23 5.375C223.935 5.80682 224.48 6.44697 224.866 7.29545C225.26 8.13636 225.457 9.25758 225.457 10.6591V13.1705C225.457 14.3371 225.711 15.1818 226.219 15.7045C226.734 16.2273 227.643 16.4886 228.946 16.4886V18.7727C227.241 18.7727 225.855 18.6591 224.787 18.4318C223.719 18.197 222.897 17.8826 222.321 17.4886C221.745 17.0871 221.351 16.6288 221.139 16.1136C220.927 15.5909 220.821 15.0417 220.821 14.4659V11.1477C220.821 10.4129 220.738 9.80682 220.571 9.32954C220.404 8.8447 220.086 8.48864 219.616 8.26136C219.154 8.02651 218.476 7.90909 217.582 7.90909V4.29545ZM228.946 16.4886V20.8523H224.866V16.4886H228.946Z" fill="#8257E5"/>
<path d="M25.4585 26.752C25.2665 26.752 25.0958 26.688 24.9465 26.56C24.8185 26.4107 24.7652 26.24 24.7865 26.048L25.2985 22.784H22.7705C22.5572 22.784 22.3758 22.72 22.2265 22.592C22.0985 22.4427 22.0345 22.2613 22.0345 22.048V19.872C22.0345 19.6587 22.0985 19.488 22.2265 19.36C22.3758 19.2107 22.5572 19.136 22.7705 19.136H25.8105L26.4825 14.656H23.6025C23.3892 14.656 23.2078 14.592 23.0585 14.464C22.9305 14.3147 22.8665 14.1333 22.8665 13.92V11.744C22.8665 11.5307 22.9305 11.36 23.0585 11.232C23.2078 11.0827 23.3892 11.008 23.6025 11.008H27.0265L27.5385 7.712C27.5812 7.54133 27.6558 7.392 27.7625 7.264C27.8905 7.11467 28.0612 7.04 28.2745 7.04H30.4505C30.6425 7.04 30.8025 7.11467 30.9305 7.264C31.0798 7.392 31.1438 7.552 31.1225 7.744L30.6425 11.008H34.2905L34.8025 7.712C34.8452 7.54133 34.9198 7.392 35.0265 7.264C35.1545 7.11467 35.3252 7.04 35.5385 7.04H37.7145C37.9065 7.04 38.0665 7.11467 38.1945 7.264C38.3438 7.392 38.4078 7.552 38.3865 7.744L37.9065 11.008H40.3705C40.6052 11.008 40.7865 11.0827 40.9145 11.232C41.0638 11.36 41.1385 11.5307 41.1385 11.744V13.92C41.1385 14.1333 41.0638 14.3147 40.9145 14.464C40.7865 14.592 40.6052 14.656 40.3705 14.656H37.3625L36.7225 19.136H39.5385C39.7732 19.136 39.9545 19.2107 40.0825 19.36C40.2318 19.488 40.3065 19.6587 40.3065 19.872V22.048C40.3065 22.2613 40.2318 22.4427 40.0825 22.592C39.9545 22.72 39.7732 22.784 39.5385 22.784H36.1465L35.6665 26.08C35.6025 26.528 35.3465 26.752 34.8985 26.752H32.7225C32.5305 26.752 32.3705 26.688 32.2425 26.56C32.1145 26.4107 32.0505 26.24 32.0505 26.048L32.5625 22.784H28.8825L28.4025 26.08C28.3385 26.528 28.0825 26.752 27.6345 26.752H25.4585ZM29.4585 19.136H33.0745L33.7465 14.656H30.0985L29.4585 19.136ZM44.6477 28V4.72727H49.4886V13.4773H49.6364C49.8485 13.0076 50.1553 12.5303 50.5568 12.0455C50.9659 11.553 51.4962 11.1439 52.1477 10.8182C52.8068 10.4848 53.625 10.3182 54.6023 10.3182C55.875 10.3182 57.0492 10.6515 58.125 11.3182C59.2008 11.9773 60.0606 12.9735 60.7045 14.3068C61.3485 15.6326 61.6705 17.2955 61.6705 19.2955C61.6705 21.2424 61.3561 22.8864 60.7273 24.2273C60.1061 25.5606 59.2576 26.572 58.1818 27.2614C57.1136 27.9432 55.9167 28.2841 54.5909 28.2841C53.6515 28.2841 52.8523 28.1288 52.1932 27.8182C51.5417 27.5076 51.0076 27.1174 50.5909 26.6477C50.1742 26.1705 49.8561 25.6894 49.6364 25.2045H49.4205V28H44.6477ZM49.3864 19.2727C49.3864 20.3106 49.5303 21.2159 49.8182 21.9886C50.1061 22.7614 50.5227 23.3636 51.0682 23.7955C51.6136 24.2197 52.2765 24.4318 53.0568 24.4318C53.8447 24.4318 54.5114 24.2159 55.0568 23.7841C55.6023 23.3447 56.0152 22.7386 56.2955 21.9659C56.5833 21.1856 56.7273 20.2879 56.7273 19.2727C56.7273 18.2652 56.5871 17.3788 56.3068 16.6136C56.0265 15.8485 55.6136 15.25 55.0682 14.8182C54.5227 14.3864 53.8523 14.1705 53.0568 14.1705C52.2689 14.1705 51.6023 14.3788 51.0568 14.7955C50.5189 15.2121 50.1061 15.803 49.8182 16.5682C49.5303 17.3333 49.3864 18.2348 49.3864 19.2727ZM72.7869 28.3409C71.0218 28.3409 69.4953 27.9659 68.2074 27.2159C66.9271 26.4583 65.9384 25.4053 65.2415 24.0568C64.5445 22.7008 64.196 21.1288 64.196 19.3409C64.196 17.5379 64.5445 15.9621 65.2415 14.6136C65.9384 13.2576 66.9271 12.2045 68.2074 11.4545C69.4953 10.697 71.0218 10.3182 72.7869 10.3182C74.5521 10.3182 76.0748 10.697 77.3551 11.4545C78.643 12.2045 79.6354 13.2576 80.3324 14.6136C81.0294 15.9621 81.3778 17.5379 81.3778 19.3409C81.3778 21.1288 81.0294 22.7008 80.3324 24.0568C79.6354 25.4053 78.643 26.4583 77.3551 27.2159C76.0748 27.9659 74.5521 28.3409 72.7869 28.3409ZM72.8097 24.5909C73.6127 24.5909 74.2831 24.3636 74.821 23.9091C75.3589 23.447 75.7642 22.8182 76.0369 22.0227C76.3172 21.2273 76.4574 20.322 76.4574 19.3068C76.4574 18.2917 76.3172 17.3864 76.0369 16.5909C75.7642 15.7955 75.3589 15.1667 74.821 14.7045C74.2831 14.2424 73.6127 14.0114 72.8097 14.0114C71.9991 14.0114 71.3172 14.2424 70.7642 14.7045C70.2188 15.1667 69.8059 15.7955 69.5256 16.5909C69.2528 17.3864 69.1165 18.2917 69.1165 19.3068C69.1165 20.322 69.2528 21.2273 69.5256 22.0227C69.8059 22.8182 70.2188 23.447 70.7642 23.9091C71.3172 24.3636 71.9991 24.5909 72.8097 24.5909ZM84.5256 28V10.5455H89.2188V13.5909H89.4006C89.7188 12.5076 90.2528 11.6894 91.0028 11.1364C91.7528 10.5758 92.6165 10.2955 93.5938 10.2955C93.8362 10.2955 94.0975 10.3106 94.3778 10.3409C94.6581 10.3712 94.9044 10.4129 95.1165 10.4659V14.7614C94.8892 14.6932 94.5748 14.6326 94.1733 14.5795C93.7718 14.5265 93.4044 14.5 93.071 14.5C92.3589 14.5 91.7225 14.6553 91.1619 14.9659C90.6089 15.2689 90.1695 15.6932 89.8438 16.2386C89.5256 16.7841 89.3665 17.4129 89.3665 18.125V28H84.5256ZM102.097 28.3295C100.983 28.3295 99.9905 28.1364 99.1193 27.75C98.2481 27.3561 97.5587 26.7765 97.0511 26.0114C96.5511 25.2386 96.3011 24.2765 96.3011 23.125C96.3011 22.1553 96.4792 21.3409 96.8352 20.6818C97.1913 20.0227 97.6761 19.4924 98.2898 19.0909C98.9034 18.6894 99.6004 18.3864 100.381 18.1818C101.169 17.9773 101.994 17.8333 102.858 17.75C103.873 17.6439 104.691 17.5455 105.312 17.4545C105.934 17.3561 106.384 17.2121 106.665 17.0227C106.945 16.8333 107.085 16.553 107.085 16.1818V16.1136C107.085 15.3939 106.858 14.8371 106.403 14.4432C105.956 14.0492 105.32 13.8523 104.494 13.8523C103.623 13.8523 102.93 14.0455 102.415 14.4318C101.9 14.8106 101.559 15.2879 101.392 15.8636L96.9148 15.5C97.142 14.4394 97.589 13.5227 98.2557 12.75C98.9223 11.9697 99.7822 11.3712 100.835 10.9545C101.896 10.5303 103.123 10.3182 104.517 10.3182C105.487 10.3182 106.415 10.4318 107.301 10.6591C108.195 10.8864 108.987 11.2386 109.676 11.7159C110.373 12.1932 110.922 12.8068 111.324 13.5568C111.725 14.2992 111.926 15.1894 111.926 16.2273V28H107.335V25.5795H107.199C106.919 26.125 106.544 26.6061 106.074 27.0227C105.604 27.4318 105.04 27.7538 104.381 27.9886C103.722 28.2159 102.96 28.3295 102.097 28.3295ZM103.483 24.9886C104.195 24.9886 104.824 24.8485 105.369 24.5682C105.915 24.2803 106.343 23.8939 106.653 23.4091C106.964 22.9242 107.119 22.375 107.119 21.7614V19.9091C106.968 20.0076 106.759 20.0985 106.494 20.1818C106.237 20.2576 105.945 20.3295 105.619 20.3977C105.294 20.4583 104.968 20.5152 104.642 20.5682C104.316 20.6136 104.021 20.6553 103.756 20.6932C103.188 20.7765 102.691 20.9091 102.267 21.0909C101.843 21.2727 101.513 21.5189 101.278 21.8295C101.044 22.1326 100.926 22.5114 100.926 22.9659C100.926 23.625 101.165 24.1288 101.642 24.4773C102.127 24.8182 102.741 24.9886 103.483 24.9886ZM136.307 12.875H131.33C131.239 12.2311 131.053 11.6591 130.773 11.1591C130.492 10.6515 130.133 10.2197 129.693 9.86364C129.254 9.50757 128.746 9.23485 128.17 9.04545C127.602 8.85606 126.985 8.76136 126.318 8.76136C125.114 8.76136 124.064 9.06061 123.17 9.65909C122.277 10.25 121.583 11.1136 121.091 12.25C120.598 13.3788 120.352 14.75 120.352 16.3636C120.352 18.0227 120.598 19.4167 121.091 20.5455C121.591 21.6742 122.288 22.5265 123.182 23.1023C124.076 23.678 125.11 23.9659 126.284 23.9659C126.943 23.9659 127.553 23.8788 128.114 23.7045C128.682 23.5303 129.186 23.2765 129.625 22.9432C130.064 22.6023 130.428 22.1894 130.716 21.7045C131.011 21.2197 131.216 20.6667 131.33 20.0455L136.307 20.0682C136.178 21.1364 135.856 22.1667 135.341 23.1591C134.833 24.1439 134.148 25.0265 133.284 25.8068C132.428 26.5795 131.405 27.1932 130.216 27.6477C129.034 28.0947 127.697 28.3182 126.205 28.3182C124.129 28.3182 122.273 27.8485 120.636 26.9091C119.008 25.9697 117.72 24.6098 116.773 22.8295C115.833 21.0492 115.364 18.8939 115.364 16.3636C115.364 13.8258 115.841 11.6667 116.795 9.88636C117.75 8.10606 119.045 6.75 120.682 5.81818C122.318 4.87879 124.159 4.40909 126.205 4.40909C127.553 4.40909 128.803 4.59848 129.955 4.97727C131.114 5.35606 132.14 5.90909 133.034 6.63636C133.928 7.35606 134.655 8.23864 135.216 9.28409C135.784 10.3295 136.148 11.5265 136.307 12.875ZM147.631 28.3409C145.866 28.3409 144.339 27.9659 143.051 27.2159C141.771 26.4583 140.782 25.4053 140.085 24.0568C139.388 22.7008 139.04 21.1288 139.04 19.3409C139.04 17.5379 139.388 15.9621 140.085 14.6136C140.782 13.2576 141.771 12.2045 143.051 11.4545C144.339 10.697 145.866 10.3182 147.631 10.3182C149.396 10.3182 150.919 10.697 152.199 11.4545C153.487 12.2045 154.479 13.2576 155.176 14.6136C155.873 15.9621 156.222 17.5379 156.222 19.3409C156.222 21.1288 155.873 22.7008 155.176 24.0568C154.479 25.4053 153.487 26.4583 152.199 27.2159C150.919 27.9659 149.396 28.3409 147.631 28.3409ZM147.653 24.5909C148.456 24.5909 149.127 24.3636 149.665 23.9091C150.203 23.447 150.608 22.8182 150.881 22.0227C151.161 21.2273 151.301 20.322 151.301 19.3068C151.301 18.2917 151.161 17.3864 150.881 16.5909C150.608 15.7955 150.203 15.1667 149.665 14.7045C149.127 14.2424 148.456 14.0114 147.653 14.0114C146.843 14.0114 146.161 14.2424 145.608 14.7045C145.063 15.1667 144.65 15.7955 144.369 16.5909C144.097 17.3864 143.96 18.2917 143.96 19.3068C143.96 20.322 144.097 21.2273 144.369 22.0227C144.65 22.8182 145.063 23.447 145.608 23.9091C146.161 24.3636 146.843 24.5909 147.653 24.5909ZM165.801 28.2841C164.475 28.2841 163.275 27.9432 162.199 27.2614C161.131 26.572 160.282 25.5606 159.653 24.2273C159.032 22.8864 158.722 21.2424 158.722 19.2955C158.722 17.2955 159.044 15.6326 159.688 14.3068C160.331 12.9735 161.188 11.9773 162.256 11.3182C163.331 10.6515 164.509 10.3182 165.79 10.3182C166.767 10.3182 167.581 10.4848 168.233 10.8182C168.892 11.1439 169.422 11.553 169.824 12.0455C170.233 12.5303 170.544 13.0076 170.756 13.4773H170.903V4.72727H175.733V28H170.96V25.2045H170.756C170.528 25.6894 170.206 26.1705 169.79 26.6477C169.381 27.1174 168.847 27.5076 168.188 27.8182C167.536 28.1288 166.741 28.2841 165.801 28.2841ZM167.335 24.4318C168.116 24.4318 168.775 24.2197 169.312 23.7955C169.858 23.3636 170.275 22.7614 170.562 21.9886C170.858 21.2159 171.006 20.3106 171.006 19.2727C171.006 18.2348 170.862 17.3333 170.574 16.5682C170.286 15.803 169.869 15.2121 169.324 14.7955C168.778 14.3788 168.116 14.1705 167.335 14.1705C166.54 14.1705 165.869 14.3864 165.324 14.8182C164.778 15.25 164.366 15.8485 164.085 16.6136C163.805 17.3788 163.665 18.2652 163.665 19.2727C163.665 20.2879 163.805 21.1856 164.085 21.9659C164.373 22.7386 164.786 23.3447 165.324 23.7841C165.869 24.2159 166.54 24.4318 167.335 24.4318ZM184.69 28.3295C183.577 28.3295 182.584 28.1364 181.713 27.75C180.842 27.3561 180.152 26.7765 179.645 26.0114C179.145 25.2386 178.895 24.2765 178.895 23.125C178.895 22.1553 179.073 21.3409 179.429 20.6818C179.785 20.0227 180.27 19.4924 180.884 19.0909C181.497 18.6894 182.194 18.3864 182.974 18.1818C183.762 17.9773 184.588 17.8333 185.452 17.75C186.467 17.6439 187.285 17.5455 187.906 17.4545C188.527 17.3561 188.978 17.2121 189.259 17.0227C189.539 16.8333 189.679 16.553 189.679 16.1818V16.1136C189.679 15.3939 189.452 14.8371 188.997 14.4432C188.55 14.0492 187.914 13.8523 187.088 13.8523C186.217 13.8523 185.524 14.0455 185.009 14.4318C184.493 14.8106 184.152 15.2879 183.986 15.8636L179.509 15.5C179.736 14.4394 180.183 13.5227 180.849 12.75C181.516 11.9697 182.376 11.3712 183.429 10.9545C184.49 10.5303 185.717 10.3182 187.111 10.3182C188.08 10.3182 189.009 10.4318 189.895 10.6591C190.789 10.8864 191.58 11.2386 192.27 11.7159C192.967 12.1932 193.516 12.8068 193.918 13.5568C194.319 14.2992 194.52 15.1894 194.52 16.2273V28H189.929V25.5795H189.793C189.512 26.125 189.137 26.6061 188.668 27.0227C188.198 27.4318 187.634 27.7538 186.974 27.9886C186.315 28.2159 185.554 28.3295 184.69 28.3295ZM186.077 24.9886C186.789 24.9886 187.418 24.8485 187.963 24.5682C188.509 24.2803 188.937 23.8939 189.247 23.4091C189.558 22.9242 189.713 22.375 189.713 21.7614V19.9091C189.562 20.0076 189.353 20.0985 189.088 20.1818C188.83 20.2576 188.539 20.3295 188.213 20.3977C187.887 20.4583 187.562 20.5152 187.236 20.5682C186.91 20.6136 186.615 20.6553 186.349 20.6932C185.781 20.7765 185.285 20.9091 184.861 21.0909C184.437 21.2727 184.107 21.5189 183.872 21.8295C183.637 22.1326 183.52 22.5114 183.52 22.9659C183.52 23.625 183.759 24.1288 184.236 24.4773C184.721 24.8182 185.334 24.9886 186.077 24.9886ZM198.276 28V10.5455H202.969V13.5909H203.151C203.469 12.5076 204.003 11.6894 204.753 11.1364C205.503 10.5758 206.366 10.2955 207.344 10.2955C207.586 10.2955 207.848 10.3106 208.128 10.3409C208.408 10.3712 208.654 10.4129 208.866 10.4659V14.7614C208.639 14.6932 208.325 14.6326 207.923 14.5795C207.522 14.5265 207.154 14.5 206.821 14.5C206.109 14.5 205.473 14.6553 204.912 14.9659C204.359 15.2689 203.92 15.6932 203.594 16.2386C203.276 16.7841 203.116 17.4129 203.116 18.125V28H198.276Z" fill="#C6ADFF"/>
</svg>
